<?xml version="1.0" encoding="UTF-8"?>
<svg version="1.1" xmlns="http://www.w3.org/2000/svg" width="512" height="512">
<path d="M0 0 C2.51033138 1.30143908 4.85691491 2.63650749 7.25 4.125 C8.76603157 5.04184698 10.28302258 5.95710868 11.80078125 6.87109375 C12.62916504 7.37237793 13.45754883 7.87366211 14.31103516 8.39013672 C19.31598263 11.3865616 24.38025828 14.28052812 29.4375 17.1875 C31.68626842 18.48295053 33.93496541 19.77852508 36.18359375 21.07421875 C37.31265137 21.72438965 38.44170898 22.37456055 39.60498047 23.04443359 C45.0716998 26.19332054 50.53574887 29.34683264 56 32.5 C58.16665311 33.7500235 60.33331979 35.00002347 62.5 36.25 C127.5 73.75 127.5 73.75 130.7512207 75.62573242 C132.91378583 76.8733474 135.07638339 78.12090616 137.23901367 79.3684082 C142.71870371 82.52943449 148.19779358 85.69149309 153.67578125 88.85546875 C167.09706615 96.60577436 180.53500558 104.32586445 194 112 C192.7220314 115.8339058 191.52549332 116.10636815 188.03125 118.00390625 C186.99427979 118.57423584 185.95730957 119.14456543 184.88891602 119.73217773 C183.77057373 120.33618408 182.65223145 120.94019043 181.5 121.5625 C179.18543129 122.83454357 176.87162963 124.10798382 174.55859375 125.3828125 C173.42663574 126.00446289 172.29467773 126.62611328 171.12841797 127.26660156 C167.23288683 129.4250432 163.38850119 131.6586966 159.5625 133.9375 C152.59296903 138.07428718 145.58497227 142.14122082 138.5625 146.1875 C137.45527588 146.82550537 136.34805176 147.46351074 135.20727539 148.12084961 C132.93662932 149.42889477 130.66587642 150.73675448 128.39501953 152.04443359 C122.9283002 155.19332054 117.46425113 158.34683264 112 161.5 C109.83334689 162.7500235 107.66668021 164.00002347 105.5 165.25 C104.4275 165.86875 103.355 166.4875 102.25 167.125 C66.5 187.75 66.5 187.75 63.24951172 189.62524414 C61.08442929 190.87435518 58.91939018 192.12354129 56.75439453 193.37280273 C51.31384294 196.51202309 45.87252784 199.64990563 40.4296875 202.78515625 C39.34526367 203.41043213 38.26083984 204.03570801 37.14355469 204.67993164 C34.9815994 205.92513908 32.8182081 207.16785693 30.65332031 208.40795898 C25.1366016 211.57566391 19.66510307 214.79890336 14.2421875 218.125 C13.15180176 218.78556396 12.06141602 219.44612793 10.93798828 220.12670898 C8.86089078 221.3879516 6.79351928 222.6653976 4.73779297 223.96118164 C3.34391357 224.80217407 3.34391357 224.80217407 1.921875 225.66015625 C0.70902832 226.41244507 0.70902832 226.41244507 -0.52832031 227.17993164 C-3.99693461 228.3307688 -5.70015621 227.45033457 -9 226 C-10.81322256 225.06721403 -12.5997186 224.08106039 -14.359375 223.05078125 C-15.37902344 222.4578125 -16.39867187 221.86484375 -17.44921875 221.25390625 C-18.53847656 220.61324219 -19.62773437 219.97257813 -20.75 219.3125 C-21.90720972 218.63743361 -23.06476857 217.96296538 -24.22265625 217.2890625 C-26.62570582 215.88984195 -29.0272392 214.48807065 -31.42773438 213.08447266 C-36.93786812 209.86550635 -42.47007617 206.68480155 -48 203.5 C-50.16676979 202.25017876 -52.33343615 201.0001782 -54.5 199.75 C-55.5725 199.13125 -56.645 198.5125 -57.75 197.875 C-69.66666667 191 -81.58333333 184.125 -93.5 177.25 C-94.57266113 176.63116943 -95.64532227 176.01233887 -96.75048828 175.37475586 C-98.91557071 174.12564482 -101.08060982 172.87645871 -103.24560547 171.62719727 C-108.68615706 168.48797691 -114.12747216 165.35009437 -119.5703125 162.21484375 C-130.9984111 155.62995259 -142.40929996 149.01765157 -153.79223633 142.35498047 C-159.29075697 139.14316633 -164.80518121 135.96148113 -170.33984375 132.8125 C-170.9624408 132.45804306 -171.58503784 132.10358612 -172.22650146 131.73838806 C-175.24814943 130.01884246 -178.27166644 128.30272511 -181.29833984 126.59204102 C-197.46801265 117.4076763 -197.46801265 117.4076763 -202 114 C-202 113.34 -202 112.68 -202 112 C-201.2879541 111.59386475 -200.5759082 111.18772949 -199.84228516 110.76928711 C-178.55168255 98.62244163 -157.28411855 86.43746343 -136.125 74.0625 C-126.85494485 68.64088505 -117.5416835 63.29795143 -108.21154785 57.98077393 C-99.0871716 52.77954871 -89.99867226 47.51972122 -80.93310547 42.21655273 C-70.42671741 36.0726035 -59.8813613 29.99680244 -49.33496094 23.921875 C-44.76545463 21.28855482 -40.1981154 18.65149313 -35.63134766 16.01342773 C-33.40580194 14.72936016 -31.17894643 13.4475596 -28.95068359 12.16821289 C-24.4288739 9.57083692 -19.91637986 6.96894576 -15.46875 4.24609375 C-14.82389648 3.85736084 -14.17904297 3.46862793 -13.51464844 3.06811523 C-11.91384109 2.09917056 -10.32346892 1.11303767 -8.734375 0.125 C-5.22286127 -1.31973708 -3.62148993 -1.10656637 0 0 Z " fill="#E3B339" transform="translate(217,3)"/>
<path d="M0 0 C3.49472611 1.39789045 6.44993488 2.71716195 9.67578125 4.546875 C11.02216675 5.30846924 11.02216675 5.30846924 12.39575195 6.08544922 C13.35827881 6.63475098 14.32080566 7.18405273 15.3125 7.75 C16.32723389 8.32637207 17.34196777 8.90274414 18.38745117 9.49658203 C27.5780878 14.73040401 36.71188214 20.06024042 45.83984375 25.40234375 C55.43942238 31.01678675 65.08135951 36.5580032 74.71777344 42.10888672 C80.14659942 45.23680148 85.57319281 48.36858448 91 51.5 C93.16665583 52.75001879 95.3333225 54.00001878 97.5 55.25 C117 66.5 117 66.5 136.5 77.75 C137.57338623 78.3692334 138.64677246 78.9884668 139.75268555 79.62646484 C141.91049803 80.87141282 144.06821353 82.1165289 146.22583008 83.36181641 C151.77716592 86.56552651 157.33036541 89.7659363 162.88671875 92.9609375 C182.4218588 104.1997995 182.4218588 104.1997995 191.0625 109.375 C191.66989014 109.73835449 192.27728027 110.10170898 192.90307617 110.47607422 C196.8696895 112.8696895 196.8696895 112.8696895 198 114 C198.09797685 116.94566834 198.12991709 119.86789765 198.12025452 122.8139801 C198.12153615 124.21796198 198.12153615 124.21796198 198.12284368 125.65030712 C198.12450135 128.81189365 198.11897245 131.97342806 198.11352539 135.13500977 C198.11324355 137.3912862 198.11340118 139.64756273 198.1139679 141.90383911 C198.11425601 148.05028605 198.10835704 154.19671367 198.10139394 160.3431561 C198.0951627 166.75871258 198.09455678 173.17426945 198.09336853 179.58982849 C198.09060882 190.36482137 198.08435328 201.13980576 198.07543945 211.91479492 C198.06626607 223.01505497 198.05918487 234.1153131 198.05493164 245.21557617 C198.05466892 245.89933544 198.05440619 246.5830947 198.05413551 247.28757394 C198.05283051 250.71765561 198.05156679 254.1477373 198.05032361 257.57781899 C198.03995011 286.05188424 198.0222569 314.52594174 198 343 C194.46935789 341.61572638 191.19644021 340.09020174 187.88671875 338.234375 C186.40473999 337.40498413 186.40473999 337.40498413 184.89282227 336.55883789 C183.30618774 335.66346313 183.30618774 335.66346313 181.6875 334.75 C180.57882568 334.12665771 179.47015137 333.50331543 178.32788086 332.86108398 C168.86059123 327.52126695 159.46700035 322.05876975 150.08984375 316.5625 C143.78429581 312.8678669 137.45705564 309.21147319 131.125 305.5625 C130.04484619 304.93996338 128.96469238 304.31742676 127.85180664 303.67602539 C125.66203666 302.41423174 123.47217645 301.15259466 121.28222656 299.89111328 C115.85340058 296.76319852 110.42680719 293.63141552 105 290.5 C102.83334417 289.24998121 100.6666775 287.99998122 98.5 286.75 C59.5 264.25 59.5 264.25 56.24707031 262.37329102 C54.09019097 261.12895002 51.93329008 259.88464636 49.77636719 258.64038086 C44.79008782 255.7638842 39.8039929 252.88706999 34.81872559 250.00881958 C33.08363272 249.00708606 31.34846743 248.00547811 29.61328125 247.00390625 C27.45949332 245.76066281 25.30583529 244.51719428 23.15234375 243.2734375 C15.44747491 238.82639907 7.72422105 234.4138406 0 230 C0 154.1 0 78.2 0 0 Z " fill="#E3B339" transform="translate(0,142)"/>
<path d="M0 0 C0 49.83 0 99.66 0 151 C-6.27 151.33 -12.54 151.66 -19 152 C-53.32992666 156.49840418 -82.80625896 171.75728275 -104.6875 198.8984375 C-108.52491671 204.04524302 -111.84762792 209.41170404 -115 215 C-115.53367187 215.94230469 -116.06734375 216.88460937 -116.6171875 217.85546875 C-129.19312745 241.47608136 -133.03504779 268.87608105 -128.4375 295.15234375 C-127.61119728 300.53068912 -127.61119728 300.53068912 -128 303 C-129.9296875 304.7109375 -129.9296875 304.7109375 -132.875 306.375 C-133.43743408 306.70040771 -133.99986816 307.02581543 -134.5793457 307.36108398 C-135.91728321 308.13236965 -137.26031355 308.89485457 -138.60693359 309.65087891 C-141.33061908 311.18639064 -144.03467382 312.75362727 -146.73828125 314.32421875 C-152.88471941 317.89052984 -159.04531597 321.43192247 -165.20776367 324.97045898 C-170.04372836 327.74845423 -174.87661591 330.53179249 -179.70864868 333.31661987 C-181.40898946 334.29607691 -183.11012778 335.27414901 -184.8112793 336.25219727 C-185.84164307 336.84572998 -186.87200684 337.4392627 -187.93359375 338.05078125 C-188.84165771 338.57325439 -189.74972168 339.09572754 -190.68530273 339.6340332 C-192.49126201 340.69977966 -194.25521129 341.83680752 -196 343 C-196.99 343 -197.98 343 -199 343 C-199.50256659 314.04905888 -199.89155758 285.09854529 -200.12343725 256.14410939 C-200.1509507 252.72098437 -200.17942599 249.29786799 -200.20849609 245.87475586 C-200.21426692 245.19331511 -200.22003775 244.51187437 -200.22598346 243.8097839 C-200.3215534 232.79502275 -200.49491112 221.78280389 -200.69736151 210.76954792 C-200.90356967 199.45697172 -201.02374048 188.14627191 -201.06994689 176.83169717 C-201.09858491 170.48005065 -201.16562361 164.13415518 -201.32606125 157.78435707 C-201.47604375 151.79955445 -201.52134971 145.82283385 -201.48836899 139.83633041 C-201.4943954 137.64665209 -201.53783473 135.45668892 -201.62252045 133.26864052 C-202.11861229 119.78329403 -202.11861229 119.78329403 -199 114 C-193.5115455 108.55644124 -186.56224698 105.3120826 -179.58198667 102.1816572 C-176.25829182 100.66055409 -173.20157764 98.87137601 -170.078125 96.9765625 C-168.13611511 95.85816133 -166.19341594 94.74095612 -164.25 93.625 C-162.04685608 92.35680371 -159.84373165 91.08857355 -157.640625 89.8203125 C-156.54298828 89.18899414 -155.44535156 88.55767578 -154.31445312 87.90722656 C-148.87349435 84.77635076 -143.43694752 81.63783458 -138 78.5 C-135.83335502 77.24996242 -133.66668834 75.99996244 -131.5 74.75 C-130.4275 74.13125 -129.355 73.5125 -128.25 72.875 C-66.5 37.25 -66.5 37.25 -63.24829102 35.37402344 C-61.08731012 34.12729744 -58.92634002 32.88055273 -56.76538086 31.63378906 C-51.26181149 28.45854117 -45.75803968 25.28364505 -40.25390625 22.109375 C-39.14337891 21.4687915 -38.03285156 20.82820801 -36.88867188 20.16821289 C-34.69626926 18.90384799 -32.50356786 17.64000103 -30.31054688 16.37670898 C-25.26933721 13.47120517 -20.23418434 10.55642826 -15.21484375 7.61328125 C-14.32917725 7.09540039 -13.44351074 6.57751953 -12.53100586 6.04394531 C-10.88774342 5.08211292 -9.24650284 4.11681477 -7.60766602 3.14746094 C-2.22318174 0 -2.22318174 0 0 0 Z " fill="#E3B339" transform="translate(426,142)"/>
<path d="M0 0 C18.93121641 15.63182189 31.042332 36.4233358 35.23193359 60.62744141 C36.93162128 88.16941514 33.13115908 112.52095837 14.96630859 134.35009766 C12.76992828 136.82662852 10.51724354 139.2331075 8.23193359 141.62744141 C7.44109375 142.53042969 7.44109375 142.53042969 6.63427734 143.45166016 C-8.03078496 159.54197148 -30.7546316 167.99456362 -52.10009766 169.01025391 C-80.27401779 169.76987516 -104.17530116 161.89896749 -125.04077148 142.46801758 C-142.5530204 125.42085932 -152.45161084 101.74868955 -153.0534668 77.41918945 C-153.30546363 53.20252085 -145.54690554 31.10657672 -129.76806641 12.62744141 C-129.13384766 11.79986328 -128.49962891 10.97228516 -127.84619141 10.11962891 C-96.95402769 -26.92774036 -36.59721536 -28.41059718 0 0 Z M-72.76806641 21.62744141 C-72.76806641 34.49744141 -72.76806641 47.36744141 -72.76806641 60.62744141 C-85.63806641 60.62744141 -98.50806641 60.62744141 -111.76806641 60.62744141 C-111.76806641 70.19744141 -111.76806641 79.76744141 -111.76806641 89.62744141 C-98.89806641 89.62744141 -86.02806641 89.62744141 -72.76806641 89.62744141 C-72.76806641 102.16744141 -72.76806641 114.70744141 -72.76806641 127.62744141 C-63.19806641 127.62744141 -53.62806641 127.62744141 -43.76806641 127.62744141 C-43.76806641 115.08744141 -43.76806641 102.54744141 -43.76806641 89.62744141 C-31.22806641 89.62744141 -18.68806641 89.62744141 -5.76806641 89.62744141 C-5.76806641 80.05744141 -5.76806641 70.48744141 -5.76806641 60.62744141 C-18.30806641 60.62744141 -30.84806641 60.62744141 -43.76806641 60.62744141 C-43.76806641 47.75744141 -43.76806641 34.88744141 -43.76806641 21.62744141 C-53.33806641 21.62744141 -62.90806641 21.62744141 -72.76806641 21.62744141 Z " fill="#E3B339" transform="translate(476.76806640625,341.37255859375)"/>
</svg>
